<svg xmlns="http://www.w3.org/2000/svg" width="1122" height="934" viewBox="0 0 1122 934">
<defs>
  <linearGradient id="logo-grad" x1="0" y1="0" x2="1" y2="1" gradientUnits="objectBoundingBox">
    <stop offset="0%"   stop-color="#6c25a7"/>
    <stop offset="60%"  stop-color="#FB7185"/>
    <stop offset="100%" stop-color="#FBBF24"/>
  </linearGradient>
</defs>
<g fill="url(#logo-grad)">
<path d="M 621.00 878.58 C621.00,878.35 622.69,877.61 624.75,876.95 C643.28,871.02 674.34,856.89 690.50,847.03 C713.61,832.93 729.84,820.14 746.56,802.84 C767.19,781.51 778.44,760.92 783.08,736.00 C783.74,732.42 784.71,728.95 785.24,728.29 C785.76,727.62 790.53,724.74 795.84,721.89 C843.85,696.13 882.28,670.04 909.75,644.54 C913.74,640.84 917.00,638.27 917.00,638.82 C917.00,640.67 910.13,657.87 904.84,669.26 C892.20,696.48 873.25,725.87 853.41,749.00 C844.84,758.99 815.67,787.35 804.77,796.28 C754.27,837.68 695.82,865.53 636.41,876.50 C622.33,879.10 621.00,879.28 621.00,878.58 ZM 801.60 739.94 C804.67,738.04 806.98,733.47 806.99,729.25 C807.01,725.25 798.66,730.85 797.16,735.85 C795.10,742.75 795.88,743.47 801.60,739.94 ZM 828.70 725.09 C830.70,723.20 832.98,717.43 832.99,714.21 C833.00,713.20 832.52,713.18 830.75,714.09 C826.90,716.07 824.10,719.15 822.94,722.69 C820.78,729.23 823.23,730.25 828.70,725.09 ZM 852.06 711.30 C855.41,708.47 858.00,703.54 858.00,699.98 C858.00,697.92 857.95,697.91 854.92,699.69 C853.23,700.69 851.40,702.04 850.85,702.69 C849.42,704.40 847.02,714.00 848.01,714.00 C848.47,714.00 850.29,712.78 852.06,711.30 ZM 878.58 688.77 C879.47,686.08 879.94,683.60 879.61,683.27 C877.72,681.38 871.07,691.97 871.02,696.94 L 871.00 699.37 L 873.97 696.53 C875.61,694.96 877.68,691.47 878.58,688.77 ZM 896.92 673.25 C899.00,667.91 898.56,666.59 895.75,669.75 C893.90,671.84 891.00,678.60 891.00,680.84 C891.00,683.71 894.68,678.99 896.92,673.25 ZM 453.50 860.53 C424.33,854.13 373.84,826.90 340.50,799.58 C331.17,791.94 311.00,773.07 311.00,771.99 C311.00,771.51 313.85,772.42 317.34,774.00 C335.35,782.17 359.44,784.46 395.03,781.39 L 402.56 780.74 L 416.03 794.19 C436.75,814.87 462.64,834.00 491.97,850.33 C499.38,854.45 505.58,858.25 505.75,858.76 C506.66,861.49 464.39,862.91 453.50,860.53 ZM 466.00 857.45 C466.00,856.73 455.84,852.02 454.25,852.01 C451.61,851.99 453.18,854.01 457.25,855.88 C461.33,857.75 466.00,858.60 466.00,857.45 ZM 443.23 854.34 C440.33,852.97 437.40,852.03 436.73,852.26 C436.05,852.49 437.98,853.62 441.00,854.78 C448.45,857.65 449.70,857.40 443.23,854.34 ZM 484.00 855.52 C484.00,854.18 475.47,850.92 472.68,851.20 L 469.50 851.51 L 473.50 853.71 C477.01,855.64 484.00,856.85 484.00,855.52 ZM 373.44 796.97 C370.63,794.16 368.23,792.75 365.49,792.31 L 361.57 791.67 L 364.04 794.71 C367.36,798.83 370.89,800.94 374.49,800.97 L 377.47 801.00 L 373.44 796.97 ZM 402.00 800.29 C402.00,799.90 400.33,797.88 398.30,795.79 C395.15,792.57 393.95,792.00 390.30,792.00 C387.93,792.00 386.00,792.40 386.00,792.88 C386.00,793.37 387.80,795.39 390.00,797.38 C393.20,800.27 394.81,801.00 398.00,801.00 C400.20,801.00 402.00,800.68 402.00,800.29 ZM 354.00 798.08 C354.00,796.33 345.63,790.00 343.32,790.00 C342.04,790.00 341.00,790.21 341.00,790.48 C341.00,790.74 343.29,792.76 346.09,794.98 C350.98,798.84 354.00,800.03 354.00,798.08 ZM 500.44 849.22 C484.31,839.52 477.65,835.03 462.50,823.61 C450.13,814.30 422.93,788.01 419.72,782.27 L 417.94 779.09 L 421.72 778.19 C423.80,777.70 433.38,775.82 443.00,774.02 C487.64,765.67 537.93,751.05 595.21,729.79 C613.93,722.84 617.28,721.87 618.40,723.08 C619.12,723.86 621.39,728.78 623.44,734.00 C627.47,744.27 632.60,756.59 645.52,787.00 C655.84,811.29 656.69,813.71 655.39,815.01 C654.03,816.37 629.51,825.74 608.23,833.03 C575.76,844.15 527.04,856.94 516.94,856.98 C514.26,857.00 510.19,855.08 500.44,849.22 ZM 523.68 847.47 C524.61,844.63 512.15,841.33 510.51,843.98 C509.48,845.66 516.19,849.07 519.92,848.77 C521.81,848.62 523.50,848.04 523.68,847.47 ZM 546.78 842.55 C547.60,841.74 542.91,837.20 541.00,836.96 C538.24,836.60 535.51,837.02 534.00,838.04 C532.74,838.89 532.98,839.45 535.50,841.58 C537.90,843.60 539.27,844.02 542.33,843.64 C544.44,843.38 546.44,842.89 546.78,842.55 ZM 569.35 836.05 C572.16,833.24 566.13,829.38 560.58,830.42 C556.28,831.23 556.00,833.07 559.73,836.01 C562.49,838.17 567.20,838.20 569.35,836.05 ZM 590.85 829.90 C594.57,828.61 594.77,827.45 591.83,824.31 C589.50,821.84 586.08,821.35 582.93,823.04 C580.49,824.34 580.51,825.11 583.07,828.37 C585.38,831.30 586.31,831.49 590.85,829.90 ZM 613.85 821.90 C617.45,820.65 617.78,819.18 615.17,815.97 C613.63,814.06 612.77,813.82 609.62,814.41 C605.15,815.25 604.27,816.96 606.54,820.42 C608.43,823.30 609.32,823.48 613.85,821.90 ZM 637.05 813.47 C640.34,811.77 640.51,811.21 638.84,807.55 C637.51,804.64 635.19,804.33 630.98,806.51 C628.34,807.88 628.16,808.28 629.09,810.74 C630.79,815.22 632.53,815.81 637.05,813.47 ZM 454.25 794.36 C458.68,793.63 458.85,792.80 455.45,788.34 C453.27,785.48 452.29,785.00 448.70,785.02 C443.01,785.04 441.16,786.23 443.02,788.67 C448.07,795.32 448.16,795.36 454.25,794.36 ZM 486.49 787.63 C488.30,786.30 488.29,786.16 485.93,783.22 C482.75,779.26 480.25,778.19 476.16,779.07 C470.86,780.20 470.48,781.34 474.03,785.38 C476.61,788.32 477.91,789.00 480.91,789.00 C482.95,789.00 485.46,788.38 486.49,787.63 ZM 517.29 780.11 C518.30,779.10 515.94,774.03 513.56,772.05 C511.80,770.59 504.45,771.15 502.73,772.87 C501.45,774.15 503.55,779.61 505.88,781.05 C507.68,782.16 515.92,781.48 517.29,780.11 ZM 545.43 772.02 C548.56,770.84 548.74,768.21 545.93,764.63 C543.64,761.73 539.86,761.20 535.55,763.16 C532.46,764.57 532.31,766.85 535.07,770.37 C537.30,773.20 540.86,773.77 545.43,772.02 ZM 576.25 761.84 C579.41,760.60 579.51,760.15 577.60,755.59 C575.67,750.97 574.68,750.61 568.98,752.51 C563.35,754.38 562.90,755.68 566.05,760.85 C568.22,764.41 569.46,764.53 576.25,761.84 ZM 606.25 751.10 C609.42,749.89 609.79,747.42 607.47,742.95 C605.72,739.56 603.62,739.26 598.53,741.69 C594.58,743.57 594.15,745.45 596.58,750.16 C598.26,753.41 599.80,753.56 606.25,751.10 ZM 667.53 808.75 C667.31,808.06 665.24,801.20 662.93,793.50 C657.62,775.79 649.91,753.13 642.05,732.09 C638.67,723.07 636.15,715.06 636.44,714.30 C636.73,713.53 638.67,712.22 640.74,711.37 C665.09,701.43 698.20,686.44 723.46,673.93 C738.34,666.57 745.65,663.43 746.13,664.21 C747.13,665.82 750.71,685.58 752.18,697.50 C754.47,716.20 753.32,766.80 750.43,774.32 C749.46,776.86 721.66,789.61 688.79,802.60 C678.50,806.67 669.60,810.00 669.01,810.00 C668.42,810.00 667.75,809.44 667.53,808.75 ZM 688.74 787.09 C711.19,778.09 742.29,764.14 744.19,762.21 C745.11,761.27 746.15,759.35 746.50,757.95 C747.11,755.43 746.94,755.48 736.31,760.57 C722.37,767.24 693.17,780.19 681.00,785.10 C675.78,787.20 671.54,789.39 671.60,789.96 C671.85,792.53 672.06,793.00 672.99,793.00 C673.53,793.00 680.62,790.34 688.74,787.09 ZM 679.48 758.50 C683.55,749.97 687.27,743.00 687.75,743.00 C688.23,743.00 692.50,744.31 697.23,745.91 L 705.84 748.82 L 712.98 734.91 C718.03,725.06 720.62,721.00 721.86,721.00 C722.82,721.00 727.55,723.47 732.37,726.50 C737.18,729.53 741.38,732.00 741.68,732.00 C742.85,732.00 738.28,690.97 736.43,684.84 C736.01,683.47 732.35,684.92 714.71,693.46 C696.28,702.38 669.93,714.36 657.64,719.40 C655.36,720.34 653.97,721.50 654.25,722.24 C654.51,722.94 658.50,734.86 663.11,748.75 C667.72,762.63 671.63,773.99 671.79,774.00 C671.96,774.00 675.42,767.03 679.48,758.50 ZM 331.60 769.86 C317.94,768.11 305.96,763.93 304.62,760.46 C303.37,757.20 304.09,749.39 306.04,745.10 C307.14,742.69 310.00,737.95 312.41,734.57 C317.73,727.12 335.41,710.00 337.79,710.00 C346.68,710.00 410.76,700.58 416.25,698.46 C417.21,698.09 418.00,698.08 418.00,698.45 C418.00,698.81 415.55,703.27 412.56,708.35 C404.43,722.17 401.63,731.18 401.64,743.50 C401.65,753.31 401.87,754.33 406.44,765.15 C407.03,766.53 406.05,766.97 400.32,767.89 C381.24,770.95 347.61,771.92 331.60,769.86 ZM 282.50 699.37 C265.94,696.88 254.54,693.31 248.82,688.83 C240.87,682.60 222.56,640.32 213.48,607.23 C209.49,592.71 204.43,567.80 203.39,557.60 C202.83,552.07 202.95,550.85 203.99,551.49 C205.78,552.60 204.83,537.70 202.96,535.45 C202.13,534.45 201.44,530.30 201.18,524.66 L 200.76 515.50 L 204.86 520.14 C217.03,533.87 232.86,538.18 272.38,538.50 C292.53,538.66 297.39,538.97 297.99,540.10 C298.40,540.87 299.02,544.42 299.37,548.00 C300.53,559.76 304.80,583.30 308.36,597.52 C315.04,624.19 322.79,646.82 335.68,677.27 C339.81,687.05 342.96,695.66 342.68,696.40 C342.39,697.15 340.43,698.05 338.33,698.39 C333.59,699.17 286.62,699.99 282.50,699.37 ZM 290.00 683.47 C290.00,682.69 288.90,679.57 287.56,676.53 C285.15,671.10 285.04,671.00 280.93,671.00 C276.76,671.00 276.75,671.01 277.39,674.21 C277.74,675.97 278.81,679.01 279.77,680.96 C281.13,683.75 282.24,684.62 285.00,685.06 C289.07,685.70 290.00,685.41 290.00,683.47 ZM 317.58 683.64 C317.87,682.90 316.98,679.75 315.61,676.64 L 313.11 671.00 L 308.06 671.00 C302.10,671.00 301.97,671.42 305.49,679.38 L 307.97 685.00 L 312.52 685.00 C315.42,685.00 317.25,684.51 317.58,683.64 ZM 265.99 681.25 C265.98,680.29 264.89,677.15 263.55,674.28 C261.78,670.49 260.41,668.89 258.52,668.41 C254.80,667.48 254.48,668.33 256.50,673.73 C258.61,679.37 259.73,680.94 262.47,682.05 C265.51,683.28 266.00,683.17 265.99,681.25 ZM 245.94 671.85 C243.12,664.70 242.30,663.33 240.38,662.59 C237.68,661.55 237.60,662.63 239.97,668.22 C242.49,674.14 244.66,677.00 246.64,677.00 C247.66,677.00 247.49,675.79 245.94,671.85 ZM 256.25 563.10 C255.95,555.53 254.94,554.00 250.25,554.00 L 246.74 554.00 L 247.44 560.20 C248.39,568.61 249.36,570.19 253.32,569.81 L 256.50 569.50 L 256.25 563.10 ZM 283.35 568.53 C283.66,567.73 283.43,564.35 282.85,561.03 C281.95,555.91 281.41,554.89 279.39,554.38 C278.08,554.05 275.81,554.08 274.36,554.45 C271.76,555.10 271.73,555.21 272.33,561.59 C272.66,565.16 273.20,568.51 273.53,569.04 C274.51,570.63 282.71,570.21 283.35,568.53 ZM 234.18 560.00 C233.93,554.90 233.41,553.12 231.78,551.72 C228.53,548.93 227.52,550.14 227.21,557.22 C226.88,564.46 228.45,567.36 232.37,566.80 C234.33,566.52 234.47,565.98 234.18,560.00 ZM 217.00 554.50 C217.00,549.09 216.62,547.62 214.75,545.75 L 212.50 543.50 L 212.20 550.23 C211.90,557.26 213.05,561.00 215.54,561.00 C216.67,561.00 217.00,559.54 217.00,554.50 ZM 359.80 693.25 C357.52,690.59 340.88,648.55 335.17,631.00 C332.39,622.47 328.50,609.34 326.53,601.82 C321.03,580.91 314.00,541.04 315.24,537.81 C315.65,536.75 318.42,535.89 324.17,535.03 C347.94,531.50 385.18,523.01 416.88,513.90 C490.98,492.61 558.62,466.13 651.39,422.12 C658.48,418.75 665.11,416.00 666.12,416.00 C668.45,416.00 671.19,420.72 684.50,447.75 C696.79,472.67 707.66,498.13 718.79,528.00 C731.14,561.15 731.65,562.74 730.43,564.75 C727.89,568.93 639.09,611.23 595.50,629.04 C518.42,660.51 441.14,683.18 377.50,692.98 C361.65,695.42 361.67,695.42 359.80,693.25 ZM 382.86 675.48 C384.01,674.40 383.97,673.41 382.56,669.18 C381.64,666.41 380.27,663.64 379.51,663.01 C377.68,661.49 369.03,662.77 368.30,664.66 C367.43,666.94 370.11,674.97 372.25,676.46 C374.51,678.04 380.74,677.46 382.86,675.48 ZM 418.31 669.09 C419.49,667.91 418.16,661.80 415.93,658.12 C413.87,654.74 412.53,654.45 406.69,656.07 C402.29,657.29 401.34,658.95 402.86,662.77 C403.46,664.27 404.42,666.80 405.00,668.38 C406.04,671.23 406.14,671.26 411.76,670.60 C414.90,670.23 417.85,669.55 418.31,669.09 ZM 450.00 661.61 C454.35,660.29 454.50,660.11 454.43,656.37 C454.33,651.21 452.01,646.58 449.32,646.19 C446.01,645.72 438.97,647.92 438.31,649.63 C437.09,652.81 442.02,663.04 444.75,662.98 C445.16,662.98 447.52,662.36 450.00,661.61 ZM 488.32 650.41 C493.65,648.59 494.15,646.92 491.41,640.06 C489.53,635.38 487.55,634.51 482.09,635.97 C475.68,637.70 474.82,639.10 476.71,644.76 C479.36,652.74 480.23,653.16 488.32,650.41 ZM 527.45 637.59 C530.04,636.50 531.00,635.49 531.00,633.83 C531.00,630.38 527.97,623.20 526.23,622.54 C523.96,621.66 515.14,624.88 514.00,626.99 C512.97,628.92 514.89,635.96 517.21,638.75 C518.52,640.33 521.76,639.96 527.45,637.59 ZM 565.25 623.55 C568.14,622.33 569.00,621.41 569.00,619.51 C569.00,616.06 566.13,609.27 564.40,608.60 C562.42,607.84 552.32,611.73 551.63,613.52 C551.01,615.13 553.37,622.54 555.21,624.75 C556.53,626.34 559.45,625.99 565.25,623.55 ZM 601.42 609.04 C606.48,606.87 606.88,605.67 604.82,598.81 C603.22,593.46 601.55,592.82 595.30,595.16 C589.24,597.42 588.35,599.20 590.59,604.59 C593.57,611.79 594.30,612.09 601.42,609.04 ZM 636.44 594.03 C638.97,592.94 641.31,591.35 641.64,590.50 C642.54,588.15 638.77,578.58 636.78,578.20 C634.52,577.76 626.12,581.53 625.44,583.29 C624.66,585.32 628.91,596.00 630.49,596.00 C631.23,596.00 633.91,595.11 636.44,594.03 ZM 670.94 578.41 C673.13,577.53 675.20,575.95 675.54,574.89 C676.34,572.34 673.31,563.33 671.39,562.60 C668.99,561.68 660.55,566.18 660.21,568.56 C659.78,571.55 663.65,580.00 665.44,580.00 C666.28,580.00 668.75,579.28 670.94,578.41 ZM 347.07 561.89 C347.97,560.45 347.32,554.16 345.88,550.25 C345.21,548.44 344.28,548.00 341.14,548.00 C338.89,548.00 336.30,548.75 335.05,549.76 C333.05,551.38 332.97,551.90 333.97,556.51 C335.71,564.54 335.48,564.30 341.12,563.76 C343.92,563.49 346.60,562.65 347.07,561.89 ZM 703.46 562.32 C705.39,561.40 707.23,559.84 707.54,558.87 C708.23,556.71 706.55,550.14 704.66,547.55 C703.31,545.71 703.14,545.72 698.39,548.08 C694.09,550.21 693.52,550.86 693.63,553.50 C693.81,557.80 696.63,564.00 698.42,564.00 C699.25,564.00 701.52,563.24 703.46,562.32 ZM 376.50 556.88 C381.50,555.50 382.17,554.49 381.41,549.50 C380.66,544.54 378.50,541.00 376.23,541.01 C372.83,541.02 367.19,543.06 366.65,544.48 C365.86,546.52 368.50,556.07 370.13,557.10 C371.86,558.20 371.73,558.20 376.50,556.88 ZM 415.25 546.87 C416.92,545.97 417.15,545.12 416.67,541.58 C415.73,534.73 414.33,532.00 411.77,532.01 C407.36,532.02 402.12,534.05 401.50,535.99 C400.85,538.05 402.68,545.63 404.38,547.85 C405.51,549.33 411.70,548.77 415.25,546.87 ZM 448.26 537.43 C453.56,535.62 454.12,534.31 452.27,528.01 C450.37,521.54 449.40,520.86 444.00,522.17 C437.15,523.84 436.41,524.92 437.84,531.14 C439.77,539.49 440.65,540.02 448.26,537.43 ZM 487.56 524.54 C491.08,523.07 491.20,522.86 490.53,519.25 C489.54,513.88 487.77,510.58 485.64,510.17 C482.51,509.57 476.98,511.02 475.05,512.95 C473.32,514.68 473.30,515.09 474.76,519.65 C475.61,522.32 476.78,525.10 477.35,525.84 C478.52,527.34 481.88,526.91 487.56,524.54 ZM 527.40 508.73 C528.61,506.80 525.44,498.30 522.91,496.71 C520.94,495.47 512.33,498.52 511.05,500.90 C510.02,502.84 512.51,510.99 514.66,512.66 C516.51,514.11 525.82,511.24 527.40,508.73 ZM 560.28 497.12 C563.99,495.66 564.56,493.69 562.88,488.25 C561.02,482.26 559.31,481.25 554.04,482.99 C546.98,485.32 546.41,486.07 547.89,491.13 C548.60,493.53 549.80,496.48 550.57,497.69 C552.03,499.98 553.19,499.91 560.28,497.12 ZM 593.44 483.03 C595.97,481.94 598.29,480.41 598.59,479.62 C599.33,477.71 595.21,468.29 593.31,467.57 C591.63,466.92 583.65,470.15 582.56,471.91 C581.26,474.01 585.77,485.00 587.94,485.00 C588.43,485.00 590.91,484.11 593.44,483.03 ZM 627.04 467.98 C631.63,465.64 631.98,463.75 629.03,457.25 C626.79,452.33 625.01,451.93 618.96,455.02 C614.43,457.33 614.27,458.09 616.95,464.16 C619.97,470.98 620.66,471.24 627.04,467.98 ZM 658.42 453.04 C660.94,451.96 663.00,450.42 663.00,449.62 C663.00,447.04 659.10,438.98 657.57,438.39 C655.67,437.66 649.52,439.67 647.99,441.51 C646.56,443.24 647.39,447.47 650.02,451.79 C652.31,455.56 652.47,455.59 658.42,453.04 ZM 774.52 657.04 C774.20,656.51 772.80,650.10 771.41,642.79 C767.12,620.17 760.40,594.55 752.03,568.85 C747.61,555.29 744.00,543.49 744.00,542.64 C744.00,541.09 746.22,539.64 759.50,532.47 C771.37,526.06 794.52,511.88 816.37,497.62 C827.85,490.13 837.83,484.00 838.54,484.00 C839.33,484.00 842.00,490.56 845.38,500.75 C853.89,526.49 857.81,543.89 861.88,574.00 C865.05,597.47 865.40,602.82 863.86,604.66 C862.19,606.69 844.05,618.82 825.00,630.67 C812.11,638.69 777.29,658.00 775.72,658.00 C775.39,658.00 774.85,657.57 774.52,657.04 ZM 793.87 632.94 C797.11,630.96 797.22,630.69 796.76,625.88 C796.10,619.02 794.88,618.01 790.21,620.51 C786.19,622.67 785.28,625.36 786.46,631.66 C787.21,635.61 788.98,635.92 793.87,632.94 ZM 820.10 617.72 C823.97,615.12 824.72,612.34 823.06,606.79 C821.75,602.42 820.98,602.23 816.37,605.08 C813.49,606.86 813.00,607.72 813.00,611.02 C813.00,615.30 814.48,620.00 815.83,620.00 C816.31,620.00 818.23,618.97 820.10,617.72 ZM 846.31 601.20 C848.18,599.25 849.00,597.33 848.99,594.95 C848.95,586.48 846.46,584.90 841.08,589.92 C838.24,592.58 838.01,593.25 838.56,597.17 C838.89,599.55 839.34,602.06 839.55,602.75 C840.21,604.89 843.50,604.13 846.31,601.20 ZM 875.52 594.82 C875.26,594.09 874.35,586.39 873.50,577.71 C870.53,547.28 864.15,516.44 855.44,490.29 C853.01,483.02 851.26,476.49 851.54,475.77 C851.81,475.05 853.04,473.83 854.27,473.07 C860.05,469.49 876.00,455.59 876.00,454.14 C875.99,453.24 873.52,446.42 870.50,439.00 C867.48,431.58 865.01,424.88 865.00,424.13 C865.00,423.37 867.77,419.80 871.15,416.18 C889.02,397.07 898.68,379.39 900.77,361.97 L 901.66 354.50 L 906.74 365.00 C922.33,397.23 933.75,443.27 936.99,487.00 C938.47,506.84 938.26,522.56 936.45,529.54 C934.50,537.05 928.35,548.53 922.00,556.51 C908.98,572.87 877.07,599.17 875.52,594.82 ZM 893.53 566.78 C895.99,563.86 896.19,563.02 895.71,557.70 C895.41,554.48 894.94,551.61 894.66,551.32 C893.85,550.51 889.25,554.26 888.15,556.62 C887.60,557.79 887.38,560.72 887.66,563.12 C888.60,571.25 889.36,571.73 893.53,566.78 ZM 913.03 548.25 C914.92,545.87 915.13,544.70 914.60,539.58 C914.27,536.33 913.73,533.40 913.41,533.08 C913.09,532.76 911.74,533.76 910.41,535.31 C907.94,538.18 907.42,541.84 908.62,547.88 C909.39,551.71 910.23,551.79 913.03,548.25 ZM 926.96 531.07 C928.15,528.85 928.23,519.46 927.09,516.54 C926.37,514.69 926.22,514.74 924.55,517.29 C923.08,519.52 922.89,521.15 923.46,526.50 C924.18,533.18 925.15,534.45 926.96,531.07 ZM 935.99 511.19 C935.97,505.59 934.85,499.97 933.87,500.58 C932.86,501.20 932.72,508.33 933.62,512.86 C934.44,516.96 936.00,515.86 935.99,511.19 ZM 890.54 435.96 C892.20,434.12 892.26,433.43 891.14,429.21 C890.45,426.62 889.21,423.46 888.38,422.18 C887.14,420.28 886.60,420.09 885.38,421.10 C882.16,423.77 881.74,426.02 883.55,430.86 C886.40,438.48 887.52,439.30 890.54,435.96 ZM 903.80 418.80 C904.46,418.14 905.00,416.76 905.00,415.74 C905.00,412.67 900.86,404.00 899.40,404.00 C897.35,404.00 896.66,408.42 898.04,412.70 C900.39,419.99 901.47,421.13 903.80,418.80 ZM 912.50 401.01 C913.17,398.90 908.38,387.00 906.86,387.00 C904.93,387.00 905.53,391.96 908.21,398.25 C910.42,403.40 911.51,404.11 912.50,401.01 ZM 736.53 525.07 C735.70,523.45 733.05,517.04 730.64,510.82 C722.02,488.54 711.41,465.05 697.32,437.04 C689.44,421.39 683.00,408.26 683.00,407.86 C683.00,407.45 688.96,403.87 696.25,399.90 C738.89,376.65 766.53,359.40 786.42,343.63 L 797.34 334.97 L 799.78 337.24 C803.63,340.80 820.21,364.43 829.18,379.12 C838.68,394.69 852.54,421.62 859.39,437.84 L 864.18 449.18 L 861.84 451.70 C856.52,457.43 840.52,468.63 810.05,487.94 C783.84,504.56 742.61,528.00 739.60,528.00 C738.75,528.00 737.37,526.68 736.53,525.07 ZM 751.42 471.06 C755.02,458.72 758.41,448.19 758.94,447.66 C759.57,447.03 763.52,448.18 770.10,450.90 C775.71,453.21 780.60,454.74 780.97,454.30 C781.66,453.49 787.49,417.36 788.65,406.75 C788.99,403.59 789.51,401.00 789.80,401.00 C791.46,401.00 821.11,417.28 829.98,423.06 C835.74,426.81 840.62,429.71 840.83,429.50 C841.96,428.37 820.48,390.23 808.72,372.50 C797.09,354.96 799.41,355.87 788.14,364.41 C770.57,377.72 742.34,395.36 716.40,409.22 C710.10,412.59 705.07,415.62 705.22,415.95 C705.38,416.29 710.50,426.45 716.62,438.53 C722.74,450.61 731.27,468.77 735.57,478.88 C741.38,492.51 743.59,496.78 744.14,495.38 C744.54,494.35 747.82,483.40 751.42,471.06 ZM 245.00 520.90 C221.05,518.22 205.38,508.92 207.54,498.68 C210.90,482.79 236.15,459.41 262.95,447.38 C268.55,444.86 273.30,442.97 273.50,443.16 C273.69,443.36 273.25,446.44 272.50,450.01 C268.96,466.99 268.16,499.96 270.89,516.24 C271.32,518.85 271.45,521.21 271.17,521.49 C270.42,522.25 253.61,521.86 245.00,520.90 ZM 265.50 428.40 C256.06,427.05 256.00,427.02 256.00,424.30 C256.00,420.41 269.95,379.58 276.91,363.13 C287.92,337.08 308.34,300.48 318.79,288.06 L 321.68 284.62 L 341.59 284.47 C358.14,284.34 363.95,283.88 376.02,281.73 C401.01,277.27 432.42,268.75 455.92,260.04 C462.75,257.51 464.58,257.17 465.55,258.21 C466.21,258.92 468.57,264.90 470.79,271.50 C477.78,292.31 491.63,330.47 503.05,360.40 L 508.35 374.30 L 506.13 376.10 C501.66,379.71 461.26,394.34 429.50,403.85 C376.09,419.83 330.42,427.93 290.50,428.51 C278.40,428.69 267.15,428.64 265.50,428.40 ZM 287.65 410.31 C288.49,408.28 289.44,405.09 289.74,403.23 C290.28,399.90 290.23,399.86 286.90,400.18 C283.08,400.54 281.16,403.42 280.26,410.12 C279.75,413.92 279.80,414.00 282.92,414.00 C285.64,414.00 286.32,413.47 287.65,410.31 ZM 310.10 410.25 C310.68,408.74 311.23,405.70 311.33,403.50 C311.50,399.57 311.44,399.50 308.18,399.66 C306.35,399.74 304.60,400.07 304.29,400.38 C303.29,401.37 301.02,411.23 301.58,412.13 C301.88,412.61 303.68,413.00 305.58,413.00 C308.44,413.00 309.23,412.52 310.10,410.25 ZM 271.41 407.32 C273.76,400.41 273.55,398.80 270.34,399.18 C268.11,399.45 267.39,400.36 265.86,404.88 C263.82,410.89 264.07,412.00 267.47,412.00 C269.37,412.00 270.11,411.11 271.41,407.32 ZM 334.43 409.67 C335.80,408.67 336.28,406.89 336.37,402.42 L 336.50 396.50 L 333.00 396.77 C331.08,396.92 329.00,397.71 328.39,398.53 C327.09,400.25 325.75,408.78 326.56,410.10 C327.40,411.45 332.37,411.18 334.43,409.67 ZM 362.51 404.62 C363.95,403.57 364.41,401.94 364.45,397.87 C364.50,392.59 364.45,392.49 361.42,392.20 C359.56,392.02 357.47,392.61 356.14,393.70 C353.88,395.55 352.28,401.69 353.34,404.46 C354.10,406.41 359.92,406.51 362.51,404.62 ZM 391.75 398.36 C393.48,397.28 394.00,396.02 394.00,392.91 C394.00,386.81 392.63,384.93 388.73,385.67 C382.70,386.81 382.00,387.61 382.00,393.34 C382.00,396.23 382.53,399.13 383.18,399.78 C384.50,401.10 388.38,400.46 391.75,398.36 ZM 422.64 389.89 C423.81,388.91 424.10,387.35 423.75,383.73 C423.49,381.06 422.87,378.47 422.36,377.96 C421.20,376.80 414.61,378.53 412.63,380.52 C411.09,382.05 411.45,389.45 413.16,391.64 C414.23,392.99 420.23,391.88 422.64,389.89 ZM 452.59 380.97 C455.10,380.01 455.23,379.67 454.63,375.33 C454.28,372.78 453.47,370.06 452.82,369.29 C451.49,367.68 447.86,368.25 444.13,370.67 C442.11,371.97 441.84,372.78 442.29,376.14 C443.22,383.05 444.96,383.87 452.59,380.97 ZM 483.17 370.41 C485.99,368.95 486.20,368.50 485.71,364.87 C484.96,359.29 483.35,357.68 479.17,358.36 C472.51,359.44 471.32,362.14 474.12,369.75 C475.12,372.47 478.69,372.73 483.17,370.41 ZM 330.31 306.25 C334.39,299.71 334.50,297.11 330.63,298.59 C329.03,299.20 324.00,307.04 324.00,308.93 C324.00,311.52 328.11,309.78 330.31,306.25 ZM 346.23 304.50 C349.63,298.26 349.64,297.79 346.28,298.18 C344.30,298.41 342.93,299.60 341.29,302.50 C338.31,307.78 338.30,310.24 341.25,309.82 C342.76,309.60 344.39,307.86 346.23,304.50 ZM 316.22 307.25 C317.75,305.50 321.00,299.59 321.00,298.55 C321.00,298.25 320.15,298.00 319.10,298.00 C317.46,298.00 311.00,306.24 311.00,308.34 C311.00,309.71 314.75,308.93 316.22,307.25 ZM 360.37 307.41 C361.96,306.80 365.63,297.29 364.65,296.32 C364.34,296.01 362.93,296.05 361.51,296.41 C358.94,297.05 357.43,299.61 356.30,305.25 C355.73,308.09 356.93,308.73 360.37,307.41 ZM 378.89 304.25 C381.63,301.99 383.11,293.00 380.75,293.00 C379.91,293.00 378.28,293.79 377.14,294.75 C374.67,296.83 372.62,304.66 374.37,305.38 C376.28,306.16 376.71,306.06 378.89,304.25 ZM 398.70 299.64 C399.37,299.01 400.21,296.60 400.58,294.27 C401.37,289.28 399.50,287.79 395.63,290.32 C393.27,291.87 391.25,298.98 392.56,301.10 C393.25,302.22 396.91,301.35 398.70,299.64 ZM 418.80 294.80 C420.20,293.40 420.43,285.38 419.08,284.55 C418.58,284.24 417.07,284.40 415.73,284.91 C413.82,285.64 413.16,286.78 412.71,290.13 C412.39,292.48 412.36,294.77 412.63,295.20 C413.38,296.42 417.45,296.15 418.80,294.80 ZM 439.80 284.13 C439.54,280.16 439.17,279.45 437.19,279.17 C433.84,278.70 432.00,280.73 432.00,284.92 C432.00,289.80 433.38,291.11 437.16,289.79 C439.91,288.83 440.08,288.47 439.80,284.13 ZM 457.45 282.84 C459.40,281.95 460.00,280.93 460.00,278.53 C460.00,276.80 459.35,274.51 458.56,273.44 C457.21,271.63 456.92,271.61 454.31,273.05 C451.84,274.41 451.54,275.09 451.85,278.55 C452.38,284.51 452.91,284.91 457.45,282.84 ZM 236.53 420.47 C223.76,414.04 219.38,407.42 220.21,395.79 C221.13,382.87 239.03,344.42 257.82,315.00 C266.29,301.74 279.39,284.93 284.95,280.19 C287.73,277.83 290.00,275.39 290.00,274.79 C290.00,274.18 288.99,274.54 287.75,275.58 C285.17,277.74 285.88,276.88 297.39,263.75 C304.45,255.69 306.64,254.20 304.98,258.57 C304.44,259.98 304.00,263.65 304.00,266.74 C304.00,272.08 304.21,272.55 308.50,276.65 C310.97,279.02 314.12,281.24 315.50,281.59 C316.87,281.93 318.00,282.64 318.00,283.15 C318.00,283.66 316.27,286.43 314.16,289.29 C289.02,323.36 270.21,359.81 254.96,404.00 C247.15,426.65 247.74,426.12 236.53,420.47 ZM 245.04 401.42 C247.62,395.39 247.62,392.00 245.05,392.00 C243.57,392.00 242.69,393.30 241.40,397.39 C238.61,406.24 241.57,409.51 245.04,401.42 ZM 235.41 391.99 C236.75,388.25 236.95,386.55 236.15,385.75 C234.77,384.37 229.51,395.28 230.42,397.65 C231.35,400.08 233.29,397.88 235.41,391.99 ZM 228.46 383.75 C229.48,380.86 230.52,377.94 230.77,377.25 C231.01,376.56 230.75,376.00 230.18,376.00 C229.23,376.00 225.00,385.82 225.00,388.04 C225.00,390.66 226.81,388.43 228.46,383.75 ZM 298.11 299.47 C302.10,294.18 302.67,291.46 299.33,293.56 C296.74,295.20 291.72,302.74 292.44,303.91 C293.46,305.55 293.61,305.43 298.11,299.47 ZM 290.28 294.75 C294.73,289.21 295.23,288.26 294.06,287.54 C293.10,286.94 285.00,296.37 285.00,298.09 C285.00,300.08 287.03,298.79 290.28,294.75 ZM 291.00 281.90 C291.00,279.94 289.08,281.20 285.62,285.42 C283.63,287.85 282.02,290.44 282.04,291.17 C282.08,292.61 291.00,283.39 291.00,281.90 ZM 520.33 360.25 C518.38,355.99 514.42,347.10 511.53,340.50 C508.64,333.90 500.75,316.12 493.99,301.00 C476.13,261.01 473.70,254.86 475.24,253.38 C475.93,252.71 483.25,249.18 491.50,245.53 C509.99,237.37 529.70,226.89 543.59,217.85 C549.38,214.08 554.70,211.00 555.41,211.00 C557.27,211.00 576.90,220.76 590.70,228.55 C622.64,246.58 671.90,283.49 670.81,288.58 C670.14,291.69 631.86,316.41 603.50,332.04 C577.98,346.11 530.85,368.00 526.09,368.00 C524.31,368.00 523.19,366.49 520.33,360.25 ZM 538.90 347.42 C541.07,346.55 543.10,345.18 543.41,344.36 C544.00,342.83 540.78,335.60 539.03,334.52 C537.70,333.69 529.00,337.58 529.00,338.99 C529.00,340.96 533.50,349.00 534.60,349.00 C534.80,349.00 536.73,348.29 538.90,347.42 ZM 569.75 333.01 C571.54,331.92 573.00,330.78 573.00,330.47 C573.00,328.83 568.86,322.16 567.51,321.64 C566.65,321.31 564.15,321.75 561.97,322.63 C557.35,324.48 556.92,326.51 560.08,331.63 C562.51,335.56 564.99,335.91 569.75,333.01 ZM 596.75 319.01 C600.86,316.50 600.84,314.88 596.59,310.25 L 593.19 306.54 L 589.56 308.27 C584.70,310.59 584.28,312.31 587.40,317.02 C590.36,321.50 592.07,321.86 596.75,319.01 ZM 622.54 304.38 C625.82,302.23 625.64,300.26 621.80,296.30 C618.16,292.53 616.96,292.32 612.90,294.72 C609.18,296.92 609.24,298.62 613.20,302.70 C616.76,306.38 618.90,306.77 622.54,304.38 ZM 645.05 289.47 C649.10,287.38 648.75,284.94 643.85,281.00 C639.98,277.89 639.53,277.76 637.20,279.08 C632.32,281.85 632.10,283.74 636.24,287.55 C640.48,291.47 640.98,291.58 645.05,289.47 ZM 498.49 266.63 C500.14,265.42 500.21,264.92 499.07,262.17 C497.18,257.60 495.46,256.47 492.47,257.83 C489.59,259.14 489.28,261.97 491.62,265.54 C493.43,268.30 495.71,268.66 498.49,266.63 ZM 517.44 257.67 C519.50,256.16 518.74,253.89 515.09,250.58 C513.34,249.00 512.57,248.87 510.50,249.82 C507.46,251.20 507.35,252.90 510.07,256.37 C512.36,259.28 514.68,259.69 517.44,257.67 ZM 536.05 248.44 C537.15,247.11 536.80,246.34 533.74,243.28 C530.21,239.74 530.10,239.71 527.57,241.36 C524.39,243.45 524.38,243.86 527.54,247.26 C530.36,250.31 534.07,250.82 536.05,248.44 ZM 551.43 240.02 C555.05,238.65 554.63,236.71 550.02,233.51 C546.11,230.80 545.98,230.78 543.34,232.52 L 540.64 234.28 L 544.31 237.64 C548.47,241.46 548.04,241.32 551.43,240.02 ZM 568.07 229.96 C571.03,228.38 570.43,227.25 565.21,224.61 C561.74,222.85 559.96,222.44 558.71,223.14 C556.17,224.56 556.64,226.24 560.26,228.69 C563.97,231.19 565.35,231.42 568.07,229.96 ZM 736.26 346.75 C725.90,332.10 712.70,316.00 700.66,303.36 C695.35,297.78 691.00,293.00 691.00,292.75 C691.00,292.49 695.61,288.52 701.25,283.93 C738.32,253.71 757.00,227.58 757.00,205.96 C757.00,202.20 756.54,197.91 755.97,196.43 C755.41,194.94 755.15,193.52 755.39,193.27 C756.23,192.44 789.37,215.35 801.99,225.48 C818.84,239.00 840.58,260.22 843.47,265.97 C851.87,282.65 848.15,302.52 832.52,324.50 C826.87,332.46 819.12,341.00 817.57,341.00 C816.88,341.00 813.37,337.29 809.76,332.75 C806.15,328.21 801.84,323.21 800.17,321.64 L 797.15 318.77 L 788.68 326.31 C776.50,337.15 747.74,358.00 744.98,358.00 C744.56,358.00 740.63,352.94 736.26,346.75 ZM 668.81 269.30 C653.84,257.64 637.66,246.72 621.00,237.03 C607.43,229.14 581.35,215.84 570.98,211.52 C560.17,207.02 560.17,207.40 571.30,196.25 C585.99,181.53 590.73,172.99 589.78,163.02 C589.19,156.96 586.19,152.74 579.36,148.37 C576.41,146.48 574.00,144.67 574.00,144.33 C574.00,143.38 609.13,144.99 622.78,146.57 C655.47,150.35 692.95,161.00 720.48,174.35 L 735.73 181.74 L 738.61 187.62 C744.70,200.02 741.01,216.81 728.18,235.00 C719.46,247.37 689.64,275.81 682.81,278.28 C681.65,278.70 677.27,275.89 668.81,269.30 ZM 666.78 250.69 C666.08,249.42 661.22,242.14 656.00,234.51 C650.78,226.89 646.50,220.44 646.50,220.19 C646.50,219.54 666.83,219.95 670.94,220.68 L 674.38 221.29 L 672.13 218.40 C670.90,216.80 663.52,209.09 655.74,201.25 L 641.59 187.00 L 648.04 187.00 C666.09,187.01 691.60,190.77 712.40,196.49 C719.50,198.43 725.47,199.87 725.67,199.67 C726.13,199.20 710.84,192.10 700.94,188.17 C677.56,178.90 648.33,171.20 624.50,168.03 C620.10,167.45 615.32,166.77 613.87,166.53 C611.50,166.14 611.18,166.46 610.64,169.85 C609.40,177.62 604.00,186.09 593.34,196.96 C587.71,202.72 583.19,207.51 583.30,207.60 C583.41,207.70 588.00,209.67 593.50,211.99 C611.38,219.52 640.20,234.85 653.50,243.90 C660.65,248.77 666.85,252.81 667.28,252.87 C667.71,252.94 667.49,251.96 666.78,250.69 ZM 333.60 270.90 C321.71,269.16 314.35,263.23 315.39,256.23 C316.31,250.10 320.39,243.91 328.95,235.65 C359.95,205.78 404.54,179.62 451.00,164.04 C461.82,160.41 488.54,153.68 490.08,154.19 C490.64,154.38 487.59,156.03 483.30,157.86 C465.24,165.55 449.13,176.54 435.50,190.45 C417.15,209.18 405.87,230.35 399.82,257.40 L 398.50 263.30 L 393.50 264.56 C379.40,268.14 351.83,272.15 343.29,271.88 C341.21,271.81 336.85,271.37 333.60,270.90 ZM 717.57 714.43 C715.21,712.07 715.67,709.18 718.92,705.92 C723.67,701.18 729.00,702.40 729.00,708.25 C729.00,714.04 721.33,718.19 717.57,714.43 Z" fill="url(#logo-grad)"/>
</g>
</svg>